<svg width="146" height="146" viewBox="0 0 146 146" fill="none" xmlns="http://www.w3.org/2000/svg">
<g clip-path="url(#clip0_118_20782)">
<path d="M0 35.6098C0 15.943 15.943 0 35.6098 0H110.39C130.057 0 146 15.943 146 35.6098V110.39C146 130.057 130.057 146 110.39 146H35.6098C15.943 146 0 130.057 0 110.39V35.6098Z" fill="#E6D5FA"/>
<path d="M72.6798 39.1698C68.2792 39.1698 63.9217 40.0218 59.8561 41.6771C55.7904 43.3325 52.0963 45.7587 48.9846 48.8174C45.8729 51.8761 43.4045 55.5073 41.7205 59.5036C40.0364 63.4999 39.1697 67.7832 39.1697 72.1088C39.1697 76.4344 40.0364 80.7177 41.7205 84.714C43.4045 88.7104 45.8729 92.3415 48.9846 95.4002C52.0963 98.4589 55.7904 100.885 59.8561 102.54C63.9217 104.196 68.2792 105.048 72.6798 105.048L72.6798 39.1698Z" fill="#771AC9"/>
<path d="M77.787 39.1698H80.021C94.8267 39.1698 106.829 50.9677 106.829 65.521L77.787 39.1698Z" fill="#771AC9"/>
<path d="M106.829 81.5438V105.048H77.787V81.5438C77.787 73.9077 84.2883 67.7175 92.308 67.7175C100.328 67.7175 106.829 73.9077 106.829 81.5438Z" fill="#771AC9"/>
</g>
<defs>
<clipPath id="clip0_118_20782">
<rect width="146" height="146" fill="white"/>
</clipPath>
</defs>
</svg>
